<?xml version="1.0" standalone="no"?>
<!DOCTYPE svg PUBLIC "-//W3C//DTD SVG 20010904//EN"
 "http://www.w3.org/TR/2001/REC-SVG-20010904/DTD/svg10.dtd">
<svg version="1.0" xmlns="http://www.w3.org/2000/svg"
 width="260.000000pt" height="260.000000pt" viewBox="0 0 260.000000 260.000000"
 preserveAspectRatio="xMidYMid meet">
<metadata>
Created by potrace 1.14, written by Peter Selinger 2001-2017
</metadata>
<g transform="translate(0.000000,260.000000) scale(0.100000,-0.100000)"
fill="#000000" stroke="none">
<path d="M1253 2273 c-27 -49 -151 -263 -275 -478 -124 -214 -250 -433 -280
-485 -30 -52 -157 -272 -281 -487 -125 -216 -227 -397 -227 -403 0 -7 361 -10
1120 -10 616 0 1120 4 1120 8 0 5 -73 134 -161 288 -89 153 -306 529 -482 834
-176 305 -355 615 -396 687 -42 73 -79 133 -82 133 -3 0 -28 -39 -56 -87z
m107 -53 c0 -12 -50 -94 -54 -88 -2 1 -15 24 -30 51 l-28 47 56 0 c31 0 56 -4
56 -10z m68 -122 c-5 -19 -112 -208 -118 -208 -3 0 -21 28 -41 63 -20 34 -48
83 -63 110 l-28 47 127 0 c96 0 126 -3 123 -12z m-208 -115 c0 -11 -44 -93
-50 -93 -7 0 -50 77 -50 89 0 6 22 11 50 11 28 0 50 -3 50 -7z m280 0 c0 -11
-44 -93 -50 -93 -7 0 -50 77 -50 89 0 6 22 11 50 11 28 0 50 -3 50 -7z m65
-131 c0 -14 -248 -442 -256 -442 -11 0 -261 439 -256 447 8 12 512 7 512 -5z
m-485 -118 c0 -9 -45 -84 -50 -84 -3 0 -17 20 -32 45 l-28 45 55 0 c30 0 55
-2 55 -6z m560 0 c0 -9 -45 -84 -50 -84 -3 0 -17 20 -32 45 l-28 45 55 0 c30
0 55 -2 55 -6z m-490 -120 c0 -12 -114 -204 -121 -204 -4 0 -34 47 -68 105
l-60 105 125 0 c68 0 124 -3 124 -6z m560 0 c0 -12 -114 -204 -121 -204 -4 0
-34 47 -68 105 l-60 105 125 0 c68 0 124 -3 124 -6z m-770 -120 c0 -15 -45
-84 -52 -82 -5 2 -20 22 -34 46 l-25 42 55 0 c31 0 56 -3 56 -6z m280 0 c0
-15 -45 -84 -52 -82 -5 2 -20 22 -34 46 l-25 42 55 0 c31 0 56 -3 56 -6z m280
0 c0 -15 -45 -84 -52 -82 -5 2 -20 22 -34 46 l-25 42 55 0 c31 0 56 -3 56 -6z
m280 0 c0 -15 -45 -84 -52 -82 -5 2 -20 22 -34 46 l-25 42 55 0 c31 0 56 -3
56 -6z m70 -121 c0 -5 -33 -64 -73 -134 -340 -590 -462 -799 -468 -799 -4 0
-29 37 -55 82 -103 180 -458 795 -476 826 l-20 32 546 0 c300 0 546 -3 546 -7z
m-1050 -123 c0 -12 -50 -94 -54 -88 -2 1 -15 24 -30 51 l-28 47 56 0 c31 0 56
-4 56 -10z m1120 0 c0 -12 -50 -94 -54 -88 -2 1 -15 24 -30 51 l-28 47 56 0
c31 0 56 -4 56 -10z m-1052 -122 c-5 -19 -112 -208 -118 -208 -3 0 -21 28 -41
63 -20 34 -48 83 -63 110 l-28 47 127 0 c96 0 126 -3 123 -12z m1120 0 c-5
-19 -112 -208 -118 -208 -3 0 -21 28 -41 63 -20 34 -48 83 -63 110 l-28 47
127 0 c96 0 126 -3 123 -12z m-1328 -115 c0 -11 -44 -93 -50 -93 -7 0 -50 77
-50 89 0 6 22 11 50 11 28 0 50 -3 50 -7z m280 0 c0 -11 -44 -93 -50 -93 -7 0
-50 77 -50 89 0 6 22 11 50 11 28 0 50 -3 50 -7z m840 0 c0 -11 -44 -93 -50
-93 -7 0 -50 77 -50 89 0 6 22 11 50 11 28 0 50 -3 50 -7z m280 0 c0 -11 -44
-93 -50 -93 -7 0 -50 77 -50 89 0 6 22 11 50 11 28 0 50 -3 50 -7z m-1055
-131 c0 -14 -248 -442 -256 -442 -11 0 -261 439 -256 447 8 12 512 7 512 -5z
m1120 0 c0 -14 -248 -442 -256 -442 -11 0 -261 439 -256 447 8 12 512 7 512
-5z m-1605 -118 c0 -9 -45 -84 -50 -84 -3 0 -17 20 -32 45 l-28 45 55 0 c30 0
55 -2 55 -6z m560 0 c0 -9 -45 -84 -50 -84 -3 0 -17 20 -32 45 l-28 45 55 0
c30 0 55 -2 55 -6z m560 0 c0 -9 -45 -84 -50 -84 -3 0 -17 20 -32 45 l-28 45
55 0 c30 0 55 -2 55 -6z m560 0 c0 -9 -45 -84 -50 -84 -3 0 -17 20 -32 45
l-28 45 55 0 c30 0 55 -2 55 -6z m-1610 -120 c0 -12 -114 -204 -121 -204 -4 0
-34 47 -68 105 l-60 105 125 0 c68 0 124 -3 124 -6z m560 0 c0 -12 -114 -204
-121 -204 -4 0 -34 47 -68 105 l-60 105 125 0 c68 0 124 -3 124 -6z m560 0 c0
-12 -114 -204 -121 -204 -4 0 -34 47 -68 105 l-60 105 125 0 c68 0 124 -3 124
-6z m560 0 c0 -12 -114 -204 -121 -204 -4 0 -34 47 -68 105 l-60 105 125 0
c68 0 124 -3 124 -6z m-1890 -120 c0 -15 -45 -84 -52 -82 -5 2 -20 22 -34 46
l-25 42 55 0 c31 0 56 -3 56 -6z m280 0 c0 -15 -45 -84 -52 -82 -5 2 -20 22
-34 46 l-25 42 55 0 c31 0 56 -3 56 -6z m280 0 c0 -15 -45 -84 -52 -82 -5 2
-20 22 -34 46 l-25 42 55 0 c31 0 56 -3 56 -6z m280 0 c0 -15 -45 -84 -52 -82
-5 2 -20 22 -34 46 l-25 42 55 0 c31 0 56 -3 56 -6z m280 0 c0 -15 -45 -84
-52 -82 -5 2 -20 22 -34 46 l-25 42 55 0 c31 0 56 -3 56 -6z m280 0 c0 -15
-45 -84 -52 -82 -5 2 -20 22 -34 46 l-25 42 55 0 c31 0 56 -3 56 -6z m280 0
c0 -15 -45 -84 -52 -82 -5 2 -20 22 -34 46 l-25 42 55 0 c31 0 56 -3 56 -6z
m280 0 c0 -15 -45 -84 -52 -82 -5 2 -20 22 -34 46 l-25 42 55 0 c31 0 56 -3
56 -6z"/>
</g>
</svg>
